<?xml version="1.0" encoding="UTF-8" standalone="no"?>
<svg width="595.44px" height="841.68px" viewBox="0 0 595.44 841.68"
 xmlns="http://www.w3.org/2000/svg" xmlns:xlink="http://www.w3.org/1999/xlink" version="1.2" baseProfile="tiny">
<title>Método Prince</title>
<desc>Generated by MuseScore 2.1.0</desc>
<polyline class="StaffLines" fill="none" stroke="#000000" stroke-width="0.40" stroke-linejoin="bevel" points="28.3465,118.346 567.094,118.346"/>
<path class="Text" d="M241.954,36.5945 L235.81,50.3465 L235.474,50.3465 L229.45,37.1465 L229.45,46.8185 C229.45,48.0345 229.594,48.8385 229.882,49.2305 C230.17,49.6225 230.778,49.8425 231.706,49.8905 L231.706,50.3465 L226.066,50.3465 L226.066,49.8905 C227.058,49.8265 227.694,49.6065 227.974,49.2305 C228.254,48.8545 228.394,48.0505 228.394,46.8185 L228.394,37.0745 C228.394,36.1945 228.262,35.6305 227.998,35.3825 C227.734,35.1345 227.106,34.9785 226.114,34.9145 L226.114,34.4585 L230.866,34.4585 L236.41,46.5785 L241.714,34.4585 L246.49,34.4585 L246.49,34.9145 C245.594,34.9945 245.022,35.1625 244.774,35.4185 C244.526,35.6745 244.402,36.2265 244.402,37.0745 L244.402,47.7305 C244.402,48.5785 244.53,49.1345 244.786,49.3985 C245.042,49.6625 245.61,49.8265 246.49,49.8905 L246.49,50.3465 L239.77,50.3465 L239.77,49.8905 C240.714,49.8265 241.314,49.6545 241.57,49.3745 C241.826,49.0945 241.954,48.4585 241.954,47.4665 L241.954,36.5945 M251.362,38.2265 L250.402,38.2265 L253.93,34.6745 C254.298,34.3065 254.634,34.1225 254.938,34.1225 C255.498,34.1225 255.778,34.3785 255.778,34.8905 C255.778,35.2585 255.538,35.5945 255.058,35.8985 L251.362,38.2265 M249.178,43.6985 C249.21,44.688 249.346,45.54 249.586,46.2546 C249.826,46.9693 250.138,47.5033 250.522,47.8566 C250.906,48.21 251.294,48.4613 251.686,48.6106 C252.078,48.7598 252.49,48.8345 252.922,48.8345 C253.69,48.8345 254.358,48.646 254.926,48.269 C255.494,47.892 256.066,47.2558 256.642,46.3606 L257.026,46.5256 C256.53,47.8386 255.842,48.8436 254.962,49.5408 C254.082,50.2379 253.074,50.5865 251.938,50.5865 C250.562,50.5865 249.446,50.1 248.59,49.127 C247.734,48.154 247.306,46.8392 247.306,45.1827 C247.306,43.415 247.798,41.9936 248.782,40.9188 C249.766,39.8439 250.994,39.3065 252.466,39.3065 C253.682,39.3065 254.626,39.6705 255.298,40.3985 C255.97,41.1265 256.394,42.2265 256.57,43.6985 L249.178,43.6985 M249.226,42.9785 L254.122,42.9785 C253.962,41.9385 253.714,41.2185 253.378,40.8185 C253.042,40.4185 252.506,40.2185 251.77,40.2185 C250.33,40.2185 249.482,41.1385 249.226,42.9785 M263.922,39.5465 L263.922,40.2665 L261.522,40.2665 L261.522,47.1305 C261.522,47.8825 261.618,48.4305 261.81,48.7745 C262.002,49.1185 262.322,49.2905 262.77,49.2905 C263.266,49.2905 263.746,49.0105 264.21,48.4505 L264.522,48.7145 C263.754,49.9625 262.794,50.5865 261.642,50.5865 C260.202,50.5865 259.482,49.5657 259.482,47.5242 L259.482,40.2665 L258.232,40.2665 C258.169,40.2215 258.138,40.169 258.138,40.109 C258.138,40.034 258.162,39.974 258.21,39.929 C258.258,39.884 258.349,39.8202 258.485,39.7377 C258.621,39.6552 258.784,39.5369 258.975,39.3828 C259.167,39.2286 259.43,38.9488 259.765,38.5433 C260.1,38.1378 260.467,37.6513 260.866,37.0838 C261.125,36.7106 261.287,36.4835 261.352,36.4025 C261.465,36.4025 261.522,36.5081 261.522,36.7193 L261.522,39.5465 L263.922,39.5465 M270.646,39.3065 C272.192,39.3065 273.465,39.8186 274.464,40.843 C275.462,41.8674 275.962,43.164 275.962,44.7327 C275.962,46.396 275.442,47.7874 274.404,48.907 C273.365,50.0266 272.096,50.5865 270.598,50.5865 C269.1,50.5865 267.843,50.0465 266.828,48.9666 C265.813,47.8868 265.306,46.5388 265.306,44.9228 C265.306,43.2748 265.801,41.9268 266.792,40.8786 C267.782,39.8305 269.067,39.3065 270.646,39.3065 M267.514,43.7581 C267.514,45.4536 267.825,46.8955 268.446,48.0839 C269.068,49.2723 269.881,49.8665 270.885,49.8665 C271.777,49.8665 272.479,49.4861 272.989,48.7255 C273.499,47.9649 273.754,46.9112 273.754,45.5645 C273.754,43.9325 273.435,42.6015 272.798,41.5715 C272.16,40.5415 271.339,40.0265 270.335,40.0265 C269.49,40.0265 268.809,40.3671 268.291,41.0485 C267.773,41.7299 267.514,42.6331 267.514,43.7581 M284.915,50.5865 L284.818,50.5126 L284.818,48.9342 C284.047,50.0357 283.018,50.5865 281.732,50.5865 C280.408,50.5865 279.34,50.1097 278.526,49.1562 C277.713,48.2027 277.306,46.9568 277.306,45.4186 C277.306,43.7248 277.793,42.2827 278.766,41.0922 C279.74,39.9017 280.914,39.3065 282.287,39.3065 C283.154,39.3065 283.998,39.6652 284.818,40.3827 L284.818,36.6053 C284.818,36.1048 284.747,35.7739 284.605,35.6125 C284.463,35.4511 284.171,35.3705 283.73,35.3705 C283.509,35.3705 283.336,35.3785 283.21,35.3945 L283.21,35.0105 C284.665,34.6265 285.841,34.2745 286.736,33.9545 L286.858,34.0025 L286.858,47.5707 C286.858,48.1287 286.925,48.4955 287.059,48.671 C287.193,48.8465 287.473,48.9342 287.898,48.9342 C287.977,48.9342 288.158,48.9263 288.442,48.9106 L288.442,49.2905 L284.915,50.5865 M282.672,49.2905 C283.283,49.2905 283.793,49.1202 284.203,48.7797 C284.613,48.4392 284.818,48.1343 284.818,47.8651 L284.818,42.4017 C284.818,41.7685 284.569,41.2143 284.071,40.7391 C283.573,40.264 283.002,40.0265 282.359,40.0265 C281.443,40.0265 280.712,40.4303 280.165,41.2379 C279.619,42.0455 279.346,43.1223 279.346,44.4683 C279.346,45.9253 279.651,47.0933 280.262,47.9721 C280.872,48.851 281.676,49.2905 282.672,49.2905 M294.646,39.3065 C296.192,39.3065 297.465,39.8186 298.464,40.843 C299.462,41.8674 299.962,43.164 299.962,44.7327 C299.962,46.396 299.442,47.7874 298.404,48.907 C297.365,50.0266 296.096,50.5865 294.598,50.5865 C293.1,50.5865 291.843,50.0465 290.828,48.9666 C289.813,47.8868 289.306,46.5388 289.306,44.9228 C289.306,43.2748 289.801,41.9268 290.792,40.8786 C291.782,39.8305 293.067,39.3065 294.646,39.3065 M291.514,43.7581 C291.514,45.4536 291.825,46.8955 292.446,48.0839 C293.068,49.2723 293.881,49.8665 294.885,49.8665 C295.777,49.8665 296.479,49.4861 296.989,48.7255 C297.499,47.9649 297.754,46.9112 297.754,45.5645 C297.754,43.9325 297.435,42.6015 296.798,41.5715 C296.16,40.5415 295.339,40.0265 294.335,40.0265 C293.49,40.0265 292.809,40.3671 292.291,41.0485 C291.773,41.7299 291.514,42.6331 291.514,43.7581 M319.714,38.8148 C319.714,39.2253 319.666,39.6201 319.569,39.9991 C319.473,40.3781 319.284,40.7808 319.003,41.2071 C318.722,41.6335 318.349,42.0007 317.883,42.3087 C317.417,42.6167 316.783,42.8733 315.98,43.0786 C315.177,43.2838 314.246,43.3865 313.186,43.3865 C312.706,43.3865 312.154,43.3625 311.53,43.3145 L311.53,47.7143 C311.53,48.6008 311.67,49.1771 311.95,49.4431 C312.23,49.7091 312.842,49.8582 313.786,49.8905 L313.786,50.3465 L307.066,50.3465 L307.066,49.8905 C307.978,49.8105 308.542,49.6385 308.758,49.3745 C308.974,49.1105 309.082,48.4745 309.082,47.4665 L309.082,37.0745 C309.082,36.2105 308.97,35.6585 308.746,35.4185 C308.522,35.1785 307.962,35.0105 307.066,34.9145 L307.066,34.4585 L313.414,34.4585 C314.135,34.4585 314.833,34.5266 315.506,34.663 C316.179,34.7994 316.848,35.02 317.514,35.3249 C318.179,35.6298 318.712,36.0791 319.113,36.6728 C319.513,37.2666 319.714,37.9806 319.714,38.8148 M311.53,36.1838 L311.53,42.4028 C312.09,42.4506 312.546,42.4745 312.898,42.4745 C315.682,42.4745 317.074,41.3025 317.074,38.9585 C317.074,37.7305 316.69,36.8255 315.922,36.2435 C315.154,35.6615 313.962,35.3705 312.346,35.3705 C312.026,35.3705 311.81,35.4263 311.698,35.5379 C311.586,35.6495 311.53,35.8648 311.53,36.1838 M327.954,41.6585 C327.714,41.6585 327.418,41.5065 327.066,41.2025 C326.714,40.8985 326.482,40.7465 326.37,40.7465 C326.05,40.7465 325.69,40.9803 325.29,41.4479 C324.89,41.9155 324.69,42.3428 324.69,42.7298 L324.69,48.1722 C324.69,48.8657 324.824,49.3334 325.093,49.5753 C325.362,49.8171 325.899,49.9542 326.706,49.9865 L326.706,50.3465 L320.97,50.3465 L320.97,49.9865 C321.727,49.8412 322.196,49.6799 322.378,49.5025 C322.559,49.3251 322.65,48.9301 322.65,48.3173 L322.65,42.2697 C322.65,41.7377 322.59,41.3628 322.47,41.1451 C322.35,40.9273 322.138,40.8185 321.834,40.8185 C321.578,40.8185 321.298,40.851 320.994,40.916 L320.994,40.5406 C322.276,40.1443 323.467,39.733 324.568,39.3065 L324.69,39.353 L324.69,41.4965 C325.282,40.6732 325.786,40.1024 326.202,39.784 C326.618,39.4656 327.074,39.3065 327.57,39.3065 C327.986,39.3065 328.31,39.4185 328.542,39.6425 C328.774,39.8665 328.89,40.1785 328.89,40.5785 C328.89,40.9145 328.806,41.1785 328.638,41.3705 C328.47,41.5625 328.242,41.6585 327.954,41.6585 M330.204,40.9145 C329.857,40.9145 329.526,40.9385 329.21,40.9865 L329.21,40.6265 C330.33,40.3065 331.569,39.8665 332.929,39.3065 L333.026,39.3785 L333.026,47.8985 C333.026,48.7625 333.124,49.3105 333.322,49.5425 C333.519,49.7745 334.004,49.9225 334.778,49.9865 L334.778,50.3465 L329.09,50.3465 L329.09,49.9865 C329.922,49.9385 330.446,49.7945 330.662,49.5545 C330.878,49.3145 330.986,48.7625 330.986,47.8985 L330.986,42.3305 C330.986,41.8025 330.927,41.4345 330.808,41.2265 C330.69,41.0185 330.489,40.9145 330.204,40.9145 M331.787,33.9545 C332.143,33.9545 332.443,34.0745 332.686,34.3145 C332.928,34.5545 333.05,34.8425 333.05,35.1785 C333.05,35.5305 332.928,35.8225 332.686,36.0545 C332.443,36.2865 332.143,36.4025 331.787,36.4025 C331.449,36.4025 331.163,36.2825 330.929,36.0425 C330.695,35.8025 330.578,35.5145 330.578,35.1785 C330.578,34.8425 330.699,34.5545 330.941,34.3145 C331.183,34.0745 331.465,33.9545 331.787,33.9545 M335.946,40.7705 L335.946,40.3625 C337.132,40.0182 338.243,39.6662 339.279,39.3065 L339.45,39.3537 L339.45,41.2276 C340.261,40.4686 340.902,39.9586 341.371,39.6978 C341.841,39.4369 342.354,39.3065 342.91,39.3065 C343.796,39.3065 344.493,39.6208 345.001,40.2496 C345.508,40.8783 345.762,41.7578 345.762,42.8881 L345.762,48.3983 C345.762,48.9918 345.856,49.3888 346.045,49.5893 C346.234,49.7898 346.62,49.9222 347.202,49.9865 L347.202,50.3465 L342.234,50.3465 L342.234,49.9865 C342.832,49.9385 343.23,49.7781 343.427,49.5053 C343.623,49.2326 343.722,48.7192 343.722,47.9652 L343.722,42.9365 C343.722,41.3805 343.141,40.6025 341.98,40.6025 C341.582,40.6025 341.216,40.6946 340.882,40.879 C340.548,41.0634 340.095,41.4282 339.522,41.9735 L339.522,48.7351 C339.522,49.1683 339.632,49.4731 339.853,49.6495 C340.073,49.8259 340.483,49.9382 341.082,49.9865 L341.082,50.3465 L336.018,50.3465 L336.018,49.9865 C336.616,49.9385 337.01,49.7981 337.199,49.5655 C337.387,49.3329 337.482,48.8717 337.482,48.182 L337.482,42.2146 C337.482,41.6208 337.418,41.2157 337.29,40.9992 C337.162,40.7827 336.93,40.6745 336.594,40.6745 C336.29,40.6745 336.074,40.7065 335.946,40.7705 M348.306,45.23 C348.306,43.4552 348.831,42.0243 349.88,40.9371 C350.929,39.85 352.159,39.3065 353.569,39.3065 C354.555,39.3065 355.405,39.5505 356.117,40.0385 C356.83,40.5265 357.186,41.1065 357.186,41.7785 C357.186,42.0505 357.077,42.2865 356.861,42.4865 C356.644,42.6865 356.38,42.7865 356.07,42.7865 C355.543,42.7865 355.179,42.4216 354.978,41.6918 L354.835,41.1687 C354.707,40.7245 354.548,40.423 354.357,40.2644 C354.166,40.1058 353.855,40.0265 353.426,40.0265 C352.454,40.0265 351.67,40.4123 351.073,41.1841 C350.476,41.9558 350.178,42.9545 350.178,44.18 C350.178,45.5485 350.524,46.6663 351.217,47.5336 C351.909,48.4008 352.797,48.8345 353.879,48.8345 C354.552,48.8345 355.13,48.6674 355.615,48.3333 C356.099,47.9991 356.623,47.4183 357.186,46.5908 L357.522,46.8053 C357.362,47.1263 357.223,47.3912 357.104,47.6 C356.986,47.8087 356.774,48.1218 356.468,48.5393 C356.161,48.9568 355.859,49.294 355.561,49.5509 C355.263,49.8078 354.87,50.0446 354.383,50.2613 C353.897,50.4781 353.394,50.5865 352.876,50.5865 C351.545,50.5865 350.451,50.086 349.593,49.0851 C348.735,48.0843 348.306,46.7992 348.306,45.23 M361.178,43.6985 C361.21,44.688 361.346,45.54 361.586,46.2546 C361.826,46.9693 362.138,47.5033 362.522,47.8566 C362.906,48.21 363.294,48.4613 363.686,48.6106 C364.078,48.7598 364.49,48.8345 364.922,48.8345 C365.69,48.8345 366.358,48.646 366.926,48.269 C367.494,47.892 368.066,47.2558 368.642,46.3606 L369.026,46.5256 C368.53,47.8386 367.842,48.8436 366.962,49.5408 C366.082,50.2379 365.074,50.5865 363.938,50.5865 C362.562,50.5865 361.446,50.1 360.59,49.127 C359.734,48.154 359.306,46.8392 359.306,45.1827 C359.306,43.415 359.798,41.9936 360.782,40.9188 C361.766,39.8439 362.994,39.3065 364.466,39.3065 C365.682,39.3065 366.626,39.6705 367.298,40.3985 C367.97,41.1265 368.394,42.2265 368.57,43.6985 L361.178,43.6985 M361.226,42.9785 L366.122,42.9785 C365.962,41.9385 365.714,41.2185 365.378,40.8185 C365.042,40.4185 364.506,40.2185 363.77,40.2185 C362.33,40.2185 361.482,41.1385 361.226,42.9785"/>
<polyline class="BarLine" fill="none" stroke="#000000" stroke-width="0.80" stroke-linejoin="bevel" points="562.194,108.346 562.194,128.346"/>
<polyline class="BarLine" fill="none" stroke="#000000" stroke-width="2.50" stroke-linejoin="bevel" points="565.844,108.346 565.844,128.346"/>
<polyline class="BarLine" fill="none" stroke="#000000" stroke-width="0.80" stroke-linejoin="bevel" points="441.405,108.346 441.405,128.346"/>
<polyline class="BarLine" fill="none" stroke="#000000" stroke-width="0.80" stroke-linejoin="bevel" points="312.963,108.346 312.963,128.346"/>
<polyline class="BarLine" fill="none" stroke="#000000" stroke-width="0.80" stroke-linejoin="bevel" points="184.522,108.346 184.522,128.346"/>
<polyline class="Stem" fill="none" stroke="#000000" stroke-width="0.65" stroke-linecap="round" stroke-linejoin="bevel" points="448.13,119.13 448.13,131.471"/>
<polyline class="Stem" fill="none" stroke="#000000" stroke-width="0.65" stroke-linecap="round" stroke-linejoin="bevel" points="380.509,119.286 380.509,131.471"/>
<polyline class="Stem" fill="none" stroke="#000000" stroke-width="0.65" stroke-linecap="round" stroke-linejoin="bevel" points="319.688,119.286 319.688,131.471"/>
<polyline class="Stem" fill="none" stroke="#000000" stroke-width="0.65" stroke-linecap="round" stroke-linejoin="bevel" points="252.068,119.286 252.068,131.471"/>
<polyline class="Stem" fill="none" stroke="#000000" stroke-width="0.65" stroke-linecap="round" stroke-linejoin="bevel" points="191.247,119.286 191.247,131.471"/>
<polyline class="Stem" fill="none" stroke="#000000" stroke-width="0.65" stroke-linecap="round" stroke-linejoin="bevel" points="125.726,119.286 125.726,131.471"/>
<polyline class="Stem" fill="none" stroke="#000000" stroke-width="0.65" stroke-linecap="round" stroke-linejoin="bevel" points="67.0058,119.286 67.0058,131.471"/>
<path class="Note" d="M454.113,117.038 C454.113,116.817 454.029,116.628 453.859,116.471 C453.69,116.302 453.495,116.218 453.273,116.218 C452.883,116.218 452.095,116.608 450.91,117.389 C449.686,118.184 448.937,118.75 448.664,119.089 C448.521,119.271 448.449,119.46 448.449,119.655 C448.449,119.876 448.534,120.065 448.703,120.221 C448.859,120.391 449.055,120.475 449.289,120.475 C449.667,120.475 450.461,120.085 451.672,119.303 C452.87,118.522 453.612,117.956 453.898,117.604 C454.042,117.435 454.113,117.246 454.113,117.038 M453.078,115.593 C454.198,115.593 454.758,116.074 454.758,117.038 C454.758,117.507 454.621,118.053 454.348,118.678 C454.074,119.29 453.71,119.759 453.254,120.085 C452.251,120.762 450.995,121.1 449.484,121.1 C448.365,121.1 447.805,120.619 447.805,119.655 C447.805,119.225 447.941,118.685 448.215,118.034 C448.475,117.409 448.84,116.934 449.309,116.608 C450.311,115.931 451.568,115.593 453.078,115.593"/>
<path class="Note" d="M384.579,115.593 C385.204,115.593 385.731,115.755 386.161,116.081 C386.564,116.432 386.766,116.875 386.766,117.409 C386.766,118.307 386.304,119.147 385.379,119.928 C384.442,120.71 383.439,121.1 382.371,121.1 C381.746,121.1 381.219,120.938 380.789,120.612 C380.386,120.261 380.184,119.818 380.184,119.284 C380.184,118.386 380.653,117.546 381.59,116.764 C382.502,115.983 383.498,115.593 384.579,115.593"/>
<path class="Note" d="M323.758,115.593 C324.383,115.593 324.91,115.755 325.34,116.081 C325.744,116.432 325.945,116.875 325.945,117.409 C325.945,118.307 325.483,119.147 324.559,119.928 C323.621,120.71 322.619,121.1 321.551,121.1 C320.926,121.1 320.399,120.938 319.969,120.612 C319.565,120.261 319.363,119.818 319.363,119.284 C319.363,118.386 319.832,117.546 320.77,116.764 C321.681,115.983 322.677,115.593 323.758,115.593"/>
<path class="Note" d="M256.137,115.593 C256.762,115.593 257.29,115.755 257.719,116.081 C258.123,116.432 258.325,116.875 258.325,117.409 C258.325,118.307 257.863,119.147 256.938,119.928 C256.001,120.71 254.998,121.1 253.93,121.1 C253.305,121.1 252.778,120.938 252.348,120.612 C251.945,120.261 251.743,119.818 251.743,119.284 C251.743,118.386 252.211,117.546 253.149,116.764 C254.06,115.983 255.057,115.593 256.137,115.593"/>
<path class="Note" d="M195.317,115.593 C195.942,115.593 196.469,115.755 196.899,116.081 C197.302,116.432 197.504,116.875 197.504,117.409 C197.504,118.307 197.042,119.147 196.117,119.928 C195.18,120.71 194.177,121.1 193.11,121.1 C192.485,121.1 191.957,120.938 191.528,120.612 C191.124,120.261 190.922,119.818 190.922,119.284 C190.922,118.386 191.391,117.546 192.328,116.764 C193.24,115.983 194.236,115.593 195.317,115.593"/>
<path class="Note" d="M129.796,115.593 C130.421,115.593 130.948,115.755 131.378,116.081 C131.782,116.432 131.983,116.875 131.983,117.409 C131.983,118.307 131.521,119.147 130.597,119.928 C129.659,120.71 128.657,121.1 127.589,121.1 C126.964,121.1 126.437,120.938 126.007,120.612 C125.603,120.261 125.401,119.818 125.401,119.284 C125.401,118.386 125.87,117.546 126.808,116.764 C127.719,115.983 128.715,115.593 129.796,115.593"/>
<path class="Note" d="M71.0754,115.593 C71.7004,115.593 72.2277,115.755 72.6574,116.081 C73.061,116.432 73.2629,116.875 73.2629,117.409 C73.2629,118.307 72.8006,119.147 71.8761,119.928 C70.9386,120.71 69.936,121.1 68.8683,121.1 C68.2433,121.1 67.716,120.938 67.2863,120.612 C66.8827,120.261 66.6808,119.818 66.6808,119.284 C66.6808,118.386 67.1496,117.546 68.0871,116.764 C68.9985,115.983 69.9946,115.593 71.0754,115.593"/>
<path class="Clef" d="M41.3511,123.346 L39.5152,123.346 C39.372,123.346 39.3004,123.281 39.3004,123.151 L39.3004,113.542 C39.3004,113.412 39.372,113.346 39.5152,113.346 L41.3511,113.346 C41.4814,113.346 41.5465,113.412 41.5465,113.542 L41.5465,123.151 C41.5465,123.281 41.4814,123.346 41.3511,123.346 M36.9371,123.346 L35.0816,123.346 C34.9514,123.346 34.8863,123.281 34.8863,123.151 L34.8863,113.542 C34.8863,113.412 34.9514,113.346 35.0816,113.346 L36.9371,113.346 C37.0803,113.346 37.1519,113.412 37.1519,113.542 L37.1519,123.151 C37.1519,123.281 37.0803,123.346 36.9371,123.346"/>
<path class="TimeSig" d="M54.8449,118.346 C54.4543,118.346 54.1027,118.275 53.7902,118.132 C53.4777,117.988 53.2564,117.839 53.1261,117.682 C52.9569,117.487 52.7876,117.337 52.6183,117.233 C52.41,117.09 52.1952,117.018 51.9738,117.018 C51.6353,117.018 51.3553,117.122 51.134,117.331 C50.8996,117.526 50.7694,117.793 50.7433,118.132 C50.7173,118.275 50.6392,118.346 50.509,118.346 C50.3527,118.346 50.2746,118.275 50.2746,118.132 C50.2746,117.624 50.3918,117.168 50.6261,116.764 C50.8605,116.348 51.147,116.003 51.4855,115.729 C51.772,115.482 52.1496,115.182 52.6183,114.831 C52.6965,114.766 52.8625,114.629 53.1164,114.421 C53.3703,114.212 53.5819,114.037 53.7511,113.893 C54.0897,113.607 54.3827,113.229 54.6301,112.761 C54.8644,112.292 54.9816,111.784 54.9816,111.237 C54.9816,110.573 54.8709,110 54.6496,109.518 C54.4152,109.05 54.0571,108.815 53.5754,108.815 C53.2759,108.815 53.035,108.88 52.8527,109.011 C52.6574,109.141 52.5597,109.317 52.5597,109.538 C52.5597,109.72 52.6769,109.948 52.9113,110.221 C53.1457,110.495 53.2629,110.723 53.2629,110.905 C53.2629,111.296 53.1261,111.628 52.8527,111.901 C52.5923,112.162 52.2733,112.292 51.8957,112.292 C51.5051,112.292 51.173,112.155 50.8996,111.882 C50.6392,111.595 50.509,111.27 50.509,110.905 C50.509,110.163 50.8084,109.551 51.4074,109.069 C52.0064,108.587 52.729,108.346 53.5754,108.346 C54.578,108.346 55.4504,108.62 56.1926,109.167 C56.9347,109.688 57.3058,110.378 57.3058,111.237 C57.3058,111.823 57.2017,112.324 56.9933,112.741 C56.798,113.184 56.5051,113.529 56.1144,113.776 C55.6717,114.063 55.2876,114.284 54.9621,114.44 C54.5064,114.649 54.0506,114.844 53.5949,115.026 C53.048,115.247 52.6248,115.456 52.3254,115.651 C52.4946,115.612 52.6704,115.593 52.8527,115.593 C53.4517,115.593 54.0767,115.788 54.7277,116.178 C55.3918,116.569 55.9061,116.764 56.2707,116.764 C56.492,116.764 56.6678,116.725 56.798,116.647 C56.9282,116.569 57.0129,116.484 57.0519,116.393 C57.104,116.263 57.1496,116.172 57.1886,116.12 C57.2407,116.042 57.3058,116.003 57.384,116.003 C57.5402,116.003 57.6183,116.081 57.6183,116.237 C57.6183,116.602 57.3579,117.044 56.8371,117.565 C56.3293,118.086 55.6652,118.346 54.8449,118.346"/>
<path class="TimeSig" d="M54.423,118.6 C54.8136,118.6 55.1457,118.555 55.4191,118.464 C55.6926,118.372 55.8683,118.327 55.9465,118.327 C56.0376,118.327 56.1092,118.353 56.1613,118.405 C56.2004,118.444 56.2264,118.49 56.2394,118.542 C56.2394,118.568 56.2264,118.607 56.2004,118.659 L50.5168,125.261 L53.8566,125.261 L53.8566,122.643 C53.8566,122.474 53.9022,122.331 53.9933,122.214 C54.1496,122.083 54.2798,122.005 54.384,121.979 C54.5532,121.901 54.7616,121.719 55.009,121.432 C55.2173,121.198 55.4647,120.788 55.7511,120.202 C55.7902,120.124 55.8488,120.085 55.9269,120.085 C56.0832,120.085 56.1743,120.176 56.2004,120.358 L56.2004,125.261 L57.6261,125.261 C57.8084,125.261 57.9126,125.358 57.9386,125.553 C57.9386,125.749 57.8345,125.846 57.6261,125.846 L56.2004,125.846 L56.2004,126.003 C56.2004,126.524 56.3306,126.966 56.591,127.331 C56.8905,127.695 57.242,127.878 57.6457,127.878 C57.8019,127.878 57.8801,127.956 57.8801,128.112 C57.8801,128.268 57.8019,128.346 57.6457,128.346 C57.3722,128.346 56.9295,128.307 56.3176,128.229 C55.7577,128.138 55.3215,128.093 55.009,128.093 C54.6834,128.093 54.2472,128.138 53.7004,128.229 C53.1144,128.307 52.6782,128.346 52.3918,128.346 C52.2355,128.346 52.1574,128.268 52.1574,128.112 C52.1574,127.956 52.2355,127.878 52.3918,127.878 C52.7954,127.878 53.147,127.695 53.4465,127.331 C53.7199,126.966 53.8566,126.524 53.8566,126.003 L53.8566,125.846 L50.5168,125.846 C50.2954,125.846 50.1392,125.794 50.048,125.69 C49.9439,125.612 49.8918,125.508 49.8918,125.378 C49.8918,125.339 49.9894,125.202 50.1847,124.968 C50.4061,124.707 50.6405,124.388 50.8879,124.011 C51.1743,123.568 51.4478,123.112 51.7082,122.643 C51.9946,122.109 52.2225,121.497 52.3918,120.807 C52.5871,120.104 52.6847,119.388 52.6847,118.659 C52.6847,118.451 52.7759,118.346 52.9582,118.346 C52.9972,118.346 53.0819,118.366 53.2121,118.405 C53.2511,118.418 53.3325,118.438 53.4562,118.464 C53.5799,118.49 53.6808,118.516 53.759,118.542 C53.9933,118.581 54.2147,118.6 54.423,118.6"/>
</svg>
